<svg id="Layer_1" data-name="Layer 1" xmlns="http://www.w3.org/2000/svg" viewBox="0 0 499.52 500.19"><title>logo</title><path d="M107.9,647.07c-.91,0-2.41-1.48-2.78-4.47-3.79-30.71-7.51-61.42-11.45-92.1-4.86-37.75-10-75.46-14.88-113.2-4.44-34.3-8.7-68.63-13.07-102.94-1.55-12.2-3.21-24.38-4.83-36.57-.47-3.5-.4-6,4.54-4.64C101.6,303.07,138.55,307.38,176,308c17.1.28,16.89.2,17.3,17,.88,36,12.95,67.76,37.77,94.15,17.82,18.93,39.29,32.84,64.6,38.69a159.5,159.5,0,0,0,56.55,2.78c30.35-3.92,55.46-17.84,76.58-38.69C453.53,397.51,466.48,367,468,332.16c1.05-24.84.59-24.85,23.83-33.9a28.87,28.87,0,0,0,5.41-2.49c3-1.95,4-1,4.39,2.22q4.23,31.13,8.63,62.24c5.15,36.65,12.12,72.84,25.57,107.54,5.84,15.08,12.23,29.87,20.28,43.91,1.69,3,.47,4.9-1.35,7.11-14,17-31.15,30.33-49.89,41.79-41.61,25.43-87.05,40.31-134.57,49.79-62.36,12.44-125.83,17.07-188.51,27.24C158,641.47,133.94,643.78,107.9,647.07Z" transform="translate(-57.35 -146.88)"/><path d="M344.59,248.38c-40.84-.17-69.68,5.06-98,14.2-13.36,4.31-26.56,8.72-38.66,16-2.4,1.43-5,1.56-7.73,1.56-44.47.09-88.53-3.13-131.4-16.12-7.31-2.21-11.91-5.15-11.45-14.42.53-10.84.34-21.54,4.3-31.91,1.27-3.33,3-5.22,6.39-6.17a962.05,962.05,0,0,1,132.47-26.89c30.16-4.06,60.23-8.75,90.38-12.87,39.86-5.45,79.76-10.62,119.64-15.91,22.08-2.92,44.17-5.78,66.24-8.8,4.25-.59,5.93.8,6.48,5.11,4.11,32.16,8.44,64.29,12.68,96.43,1.18,9-5.12,14.08-10.57,19.29-5.09,4.87-11.45,8-18.2,10.16-5.62,1.82-10.63,1.38-16.22-1.36C414,258.51,374.73,249.15,344.59,248.38Z" transform="translate(-57.35 -146.88)"/></svg>